<!DOCTYPE svg PUBLIC "-//W3C//DTD SVG 1.1//EN" "http://www.w3.org/Graphics/SVG/1.1/DTD/svg11.dtd">

<!-- Uploaded to: SVG Repo, www.svgrepo.com, Transformed by: SVG Repo Mixer Tools -->
<svg fill="#0D1B2A" height="800px" width="800px" version="1.1" id="Capa_1" xmlns="http://www.w3.org/2000/svg" xmlns:xlink="http://www.w3.org/1999/xlink" viewBox="0 0 363.31 363.31" xml:space="preserve">

<g id="SVGRepo_bgCarrier" stroke-width="0"/>

<g id="SVGRepo_tracerCarrier" stroke-linecap="round" stroke-linejoin="round"/>

<g id="SVGRepo_iconCarrier"> <g> <path d="M363.31,171.798c-4.085-9.554-8.89-13.143-14.997-18.351c-9.237-7.866-20.064-14.416-30.025-21.714 c-5.298-3.88-18.472-11.668-23.545-15.766c8.905,2.17,14.008,4.805,17.772,7.211c-11.136-20.887-22.877-39.314-41.943-53.125 c-9.766-7.07-21.547-12.978-33.585-16.893c-14.184-4.611-23.752,1.42-26.122,14.004c-0.684,3.625-1.91,21.425,14.835,59.294 c5.129,11.61,5.594,18.736,2.239,33.22c-0.863,3.762-12.166,21.029-1.196,40.07c7.063-11.061,16.307-30.19,23.941-30.955 c46.631,29.751,35.683,84.816,27.528,110.007c-1.475,5.39-7.131,8.613-24.42,8.571c-3.782-0.007-7.648-0.394-11.49-1.166 c-0.508-0.105-1.033,0.134-1.206,0.551c-0.171,0.415,0.061,0.873,0.546,1.053c6.5,2.447,13.452,3.74,20.122,3.74 c3.628,0,7.116-0.384,10.397-1.131c-1.768,10.305,3.343,20.45,9.915,27.485c0.196,0.214,0.501,0.328,0.81,0.328 c0.013,0,0.029,0,0.035,0c0.564,0,1.03-0.858,0.757-1.429c-13.185-29.203,24.325-39.148,38.642-92.698 c8.747-32.711-2.186-65.982-2.186-65.982S349.938,173.392,363.31,171.798z"/> <path d="M141.907,207.642c0.082-0.344,0.568-1.467,0.959-2.369c2.949-6.816,9.855-22.778-0.12-40.094 c-0.577-1.002-1.637-1.631-2.793-1.656c-1.158-0.033-2.243,0.553-2.865,1.527c-1.572,2.463-3.216,5.258-4.955,8.217 c-4.259,7.242-11.189,19.029-15.593,20.965C74.216,166.224,82.669,116.253,91.557,88.8c0.016-0.048,0.029-0.096,0.043-0.145 c0.782-2.857,3.863-6.137,20.892-6.137h0.33c3.593,0.006,7.241,0.376,10.814,1.094c0.304,0.065,0.615,0.097,0.926,0.097 c1.782,0,3.359-1.026,4.022-2.626c0.421-1.021,0.409-2.143-0.033-3.155c-0.458-1.047-1.316-1.849-2.407-2.255 c-9.092-3.423-19.065-4.688-28.012-3.523c0.115-12.199-7.555-21.862-11.147-25.709c-0.817-0.892-2.002-1.403-3.286-1.403 c-2.392,0-4.434,1.87-4.339,4.165c0.028,0.682,0.343,1.354,0.737,2.324c6.002,13.714-0.443,22.32-11.058,36.493 c-9.428,12.591-21.162,28.261-27.937,53.601c-6.553,24.505-2.49,48.963,0.291,60.715c-9.103-4.18-25.519-10.979-35.978-10.979 c-0.879,0-1.72,0.047-2.498,0.14c-1.036,0.124-1.952,0.727-2.475,1.63c-0.521,0.903-0.587,1.999-0.177,2.958 c4.096,9.579,8.959,13.696,14.591,18.463l1.303,1.106c6.063,5.162,12.833,9.797,19.381,14.278c3.595,2.46,7.311,5.003,10.835,7.586 c1.377,1.009,3.229,2.247,5.323,3.61c-0.972,1.026-1.188,2.568-0.516,3.83c12.073,22.645,23.993,40.537,42.923,54.25 c10.068,7.289,21.999,13.292,34.503,17.359c3.48,1.131,6.818,1.705,9.922,1.705c10.67,0,18.325-6.82,20.477-18.244 c0.6-3.182,2.695-21.092-15.061-61.244C139.125,227.868,138.705,221.466,141.907,207.642z M152.502,298.802 c-1.561,8.287-6.523,12.852-13.971,12.852c-2.407,0-5.057-0.465-7.875-1.381c-11.686-3.801-23.287-9.635-32.667-16.427 c-15.294-11.079-25.857-25.245-35.87-42.754c2.505,0.948,5.456,1.88,8.975,2.736c1.508,0.368,3.063-0.36,3.75-1.749 c0.686-1.389,0.318-3.068-0.887-4.042c-3.027-2.444-8.541-5.974-13.873-9.386c-3.905-2.501-7.595-4.863-9.796-6.475 c-3.609-2.645-7.37-5.219-11.008-7.708c-6.406-4.386-13.031-8.919-18.826-13.855l-1.319-1.12 c-4.215-3.567-7.517-6.362-10.419-11.288c13.8,1.762,36.021,13.072,36.262,13.195c1.196,0.612,2.642,0.441,3.66-0.431 c1.02-0.872,1.412-2.273,0.993-3.548c-0.107-0.324-10.529-32.697-2.134-64.093c6.444-24.104,17.754-39.208,26.841-51.343 c8.025-10.717,14.81-19.777,14.688-30.789c2.158,4.854,3.351,9.933,2.171,14.403c-0.698,2.647-3.354,3.116-5.96,11.228 c-4.315,13.351-9.006,33.635-6.902,54.574c2.586,25.75,14.638,45.658,35.821,59.174c0.627,0.398,1.364,0.572,2.11,0.502 c7.109-0.711,13.157-10.146,21.572-24.458c0.563-0.956,1.114-1.895,1.655-2.808c4.442,12.315-0.278,23.225-2.704,28.83 c-0.651,1.507-1.123,2.596-1.333,3.51c-3.511,15.161-2.965,23.08,2.436,35.307C155.513,281.308,152.634,298.107,152.502,298.802z"/> </g> </g>

</svg>